<svg width="105" height="33" viewBox="0 0 105 33" fill="none" xmlns="http://www.w3.org/2000/svg">
<path d="M0.466064 31.756V0.989494H11.2421C14.9761 0.989494 17.8071 1.70789 19.7371 3.14479C21.6671 4.56759 22.6321 6.65959 22.6321 9.42069C22.6321 10.928 22.2451 12.2593 21.4701 13.4144C20.6951 14.5555 19.6171 15.3937 18.2371 15.929C19.8151 16.3234 21.0541 17.1194 21.9561 18.3168C22.8711 19.5142 23.3291 20.9793 23.3291 22.712C23.3291 25.6703 22.3851 27.9102 20.4981 29.4316C18.6101 30.953 15.9191 31.7278 12.4261 31.756H0.466064ZM6.80505 18.359V26.6634H12.2361C13.7291 26.6634 14.8911 26.3113 15.7221 25.6069C16.5671 24.8885 16.9901 23.9024 16.9901 22.6486C16.9901 19.8311 15.5321 18.4013 12.6161 18.359H6.80505ZM6.80505 13.8793H11.4961C14.6941 13.8229 16.2931 12.548 16.2931 10.0546C16.2931 8.65999 15.8841 7.6598 15.0671 7.054C14.2641 6.4342 12.9891 6.12429 11.2421 6.12429H6.80505V13.8793ZM34.4441 26.6634H47.9041V31.756H28.1051V0.989494H34.4441V26.6634ZM75.4801 17.07C75.4801 20.0988 74.9451 22.7542 73.8741 25.0364C72.8041 27.3185 71.2681 29.0794 69.2681 30.3191C67.2811 31.5588 64.9991 32.1786 62.4211 32.1786C59.8721 32.1786 57.5971 31.5658 55.5961 30.3402C53.5961 29.1146 52.0461 27.3678 50.9471 25.0998C49.8491 22.8176 49.2921 20.1974 49.2781 17.2391V15.7177C49.2781 12.6889 49.8201 10.0264 50.9051 7.73019C52.0041 5.41989 53.5461 3.65199 55.5331 2.42639C57.5331 1.18669 59.8151 0.566895 62.3791 0.566895C64.9431 0.566895 67.2181 1.18669 69.2041 2.42639C71.2051 3.65199 72.7471 5.41989 73.8321 7.73019C74.9311 10.0264 75.4801 12.6819 75.4801 15.6965V17.07ZM69.0561 15.6754C69.0561 12.4494 68.4791 9.99829 67.3241 8.32189C66.1691 6.64549 64.5201 5.80729 62.3791 5.80729C60.2521 5.80729 58.6111 6.63849 57.4561 8.30069C56.3001 9.94899 55.7161 12.372 55.7021 15.5698V17.07C55.7021 20.2115 56.2791 22.6486 57.4351 24.3813C58.5901 26.114 60.2521 26.9804 62.4211 26.9804C64.5491 26.9804 66.1831 26.1493 67.3241 24.487C68.4651 22.8106 69.0421 20.3735 69.0561 17.1757V15.6754ZM104.429 27.8679C103.288 29.2344 101.675 30.298 99.5911 31.0587C97.5061 31.8053 95.1951 32.1786 92.6601 32.1786C89.9971 32.1786 87.6591 31.601 85.6441 30.4459C83.6441 29.2766 82.0941 27.5862 80.9951 25.3745C79.9111 23.1628 79.354 20.5637 79.326 17.5772V15.4852C79.326 12.4142 79.84 9.75879 80.869 7.51889C81.911 5.26499 83.4041 3.5463 85.3481 2.363C87.3061 1.1656 89.5961 0.566895 92.2161 0.566895C95.8641 0.566895 98.717 1.44029 100.774 3.18709C102.831 4.91979 104.049 7.4485 104.429 10.7731H98.2591C97.9781 9.0122 97.3511 7.72319 96.3791 6.90609C95.4211 6.08909 94.0971 5.68049 92.4061 5.68049C90.2511 5.68049 88.6101 6.49049 87.4831 8.11059C86.3561 9.73059 85.7851 12.1395 85.7711 15.3373V17.3025C85.7711 20.5285 86.3841 22.9656 87.6091 24.6138C88.8351 26.262 90.6311 27.0861 92.998 27.0861C95.378 27.0861 97.0761 26.5789 98.0901 25.5646V20.2608H92.3221V15.5909H104.429V27.8679Z" fill="#996DFF"/>
</svg>
